<?xml version="1.0" encoding="utf-8"?>
<!-- Generator: Adobe Illustrator 27.5.0, SVG Export Plug-In . SVG Version: 6.00 Build 0)  -->
<svg version="1.1" id="Ñëîé_1" xmlns="http://www.w3.org/2000/svg" xmlns:xlink="http://www.w3.org/1999/xlink" x="0px" y="0px"
	 viewBox="0 0 600 450" style="enable-background:new 0 0 600 450;" xml:space="preserve">
<rect x="0" style="fill:#161242;" width="600" height="450"/>
<path style="fill:#0C0F38;" d="M301.326,370.248l-124.234-71.727c-3.206-1.851-2.804-5.085,0.898-7.222l122.434-70.687
	c3.702-2.138,9.303-2.37,12.509-0.519l124.234,71.727c3.206,1.851,2.804,5.085-0.898,7.222l-122.434,70.687
	C310.133,371.867,304.533,372.099,301.326,370.248z"/>
<linearGradient id="SVGID_1_" gradientUnits="userSpaceOnUse" x1="164.4252" y1="295.1706" x2="449.8353" y2="295.1706">
	<stop  offset="0" style="stop-color:#6DE0F6"/>
	<stop  offset="0.1595" style="stop-color:#68D8F5"/>
	<stop  offset="0.4138" style="stop-color:#5AC0F1"/>
	<stop  offset="0.7294" style="stop-color:#439BEA"/>
	<stop  offset="1" style="stop-color:#2C75E4"/>
</linearGradient>
<path style="fill:url(#SVGID_1_);" d="M306.73,377.728c-2.268,0-4.436-0.458-6.054-1.392l-133.714-77.2
	c-1.637-0.944-2.537-2.271-2.537-3.735c0-1.737,1.276-3.471,3.504-4.757l131.776-76.081c4.094-2.363,10.318-2.612,13.878-0.558
	l133.715,77.2c1.636,0.945,2.537,2.271,2.537,3.735c0,1.737-1.277,3.471-3.504,4.756l-131.777,76.082
	C312.322,377.067,309.453,377.728,306.73,377.728z M307.531,213.43c-2.572,0-5.291,0.627-7.411,1.851l-131.776,76.081
	c-1.963,1.133-3.089,2.605-3.089,4.038c0,1.155,0.754,2.227,2.122,3.017l133.714,77.2c3.331,1.925,9.185,1.676,13.05-0.558
	l131.777-76.082c1.963-1.133,3.088-2.605,3.089-4.037c0-1.155-0.754-2.227-2.122-3.017l-133.715-77.201
	C311.665,213.855,309.647,213.43,307.531,213.43z"/>
<g>
	<g>
		<path style="fill:#0C0F38;" d="M301.128,281.49l-48.502-28.003c-3.449-1.991-3.016-5.469,0.966-7.768l46.568-26.886
			c3.982-2.299,10.006-2.549,13.454-0.558l48.502,28.003c3.449,1.991,3.016,5.469-0.966,7.768l-46.568,26.886
			C310.6,283.231,304.577,283.48,301.128,281.49z"/>
		<g style="opacity:0.4;">
			
				<linearGradient id="SVGID_00000067225921920432986150000002867976974408629139_" gradientUnits="userSpaceOnUse" x1="239.4927" y1="230.79" x2="378.5569" y2="230.79">
				<stop  offset="0" style="stop-color:#A31FA9"/>
				<stop  offset="0.0668" style="stop-color:#8B17A0"/>
				<stop  offset="0.1494" style="stop-color:#740F98"/>
				<stop  offset="0.2393" style="stop-color:#640A92"/>
				<stop  offset="0.3408" style="stop-color:#5B078F"/>
				<stop  offset="0.4785" style="stop-color:#58068E"/>
				<stop  offset="0.6264" style="stop-color:#4D22A3"/>
				<stop  offset="0.9436" style="stop-color:#3168DA"/>
				<stop  offset="1" style="stop-color:#2C75E4"/>
			</linearGradient>
			<path style="fill:url(#SVGID_00000067225921920432986150000002867976974408629139_);" d="M364.431,214.642h-24.054
				l-26.776-15.459c-3.449-1.991-9.472-1.741-13.454,0.558l-25.81,14.902h-24.042v16.148h0.008c-0.098,1.348,0.653,2.648,2.31,3.605
				l48.502,28.003c3.449,1.991,9.472,1.741,13.454-0.558l46.568-26.886c2.069-1.194,3.17-2.706,3.276-4.163h0.018V214.642z"/>
			<path style="fill:#D4088C;" d="M251.82,231.903h-0.008v-16.148h24.042l25.81-14.902c3.982-2.299,10.006-2.549,13.454-0.558
				l26.776,15.459h22.536v-1.113h-24.054l-26.776-15.459c-3.449-1.991-9.472-1.741-13.454,0.558l-25.81,14.902h-24.042v16.148h0.008
				c-0.098,1.347,0.653,2.648,2.31,3.605l0.273,0.158C252.107,233.758,251.751,232.844,251.82,231.903z"/>
			
				<linearGradient id="SVGID_00000071558714055764244820000012191821657019958197_" gradientUnits="userSpaceOnUse" x1="573.9623" y1="772.6996" x2="639.5592" y2="715.891" gradientTransform="matrix(0.866 0.5 -1 0.5774 525.0016 -518.4943)">
				<stop  offset="0" style="stop-color:#8D139B"/>
				<stop  offset="0.1651" style="stop-color:#851BA1"/>
				<stop  offset="0.4284" style="stop-color:#6E33B2"/>
				<stop  offset="0.7551" style="stop-color:#4958CD"/>
				<stop  offset="1" style="stop-color:#2979E4"/>
			</linearGradient>
			<path style="fill:url(#SVGID_00000071558714055764244820000012191821657019958197_);" d="M301.114,246.249l-48.502-28.003
				c-3.449-1.991-3.016-5.469,0.966-7.768l46.568-26.886c3.982-2.299,10.006-2.549,13.454-0.558l48.502,28.003
				c3.449,1.991,3.016,5.469-0.966,7.768l-46.568,26.886C310.586,247.991,304.563,248.24,301.114,246.249z"/>
			<path style="fill:#6EE8FC;" d="M362.103,211.038l-48.502-28.003c-1.786-1.031-4.263-1.456-6.79-1.312
				c1.837,0.111,3.558,0.542,4.892,1.312l48.502,28.003c3.449,1.991,3.016,5.469-0.966,7.768l-46.568,26.886
				c-1.919,1.108-4.313,1.735-6.664,1.87c2.913,0.175,6.121-0.46,8.562-1.87l46.568-26.886
				C365.119,216.506,365.551,213.029,362.103,211.038z"/>
			<path style="fill:#480689;" d="M307.058,239.581c-1.707,0-3.339-0.345-4.556-1.048l-36.109-20.849
				c-1.252-0.723-1.941-1.742-1.941-2.871c0-1.331,0.97-2.654,2.66-3.63l34.67-20.017c3.074-1.775,7.752-1.962,10.431-0.415
				l36.11,20.848c1.252,0.722,1.94,1.742,1.94,2.871c0,1.332-0.97,2.655-2.66,3.63l-34.67,20.018
				C311.257,239.085,309.104,239.58,307.058,239.581z M307.656,190.52c-1.894,0-3.897,0.463-5.46,1.365l-34.67,20.017
				c-1.427,0.824-2.245,1.885-2.245,2.912c0,0.82,0.542,1.585,1.526,2.153l36.109,20.848c2.45,1.414,6.756,1.228,9.602-0.415
				l34.67-20.017c1.427-0.824,2.245-1.885,2.245-2.913c0-0.82-0.542-1.585-1.525-2.153l-36.11-20.848
				C310.694,190.833,309.211,190.52,307.656,190.52z"/>
			<path style="fill:#D4088C;" d="M303.29,246.249l-48.502-28.003c-3.449-1.991-3.016-5.469,0.966-7.768l46.568-26.886
				c1.891-1.092,4.241-1.715,6.558-1.862c-2.957-0.211-6.244,0.425-8.734,1.862l-46.568,26.886
				c-3.982,2.299-4.415,5.777-0.966,7.768l48.502,28.003c1.811,1.046,4.333,1.467,6.897,1.304
				C306.237,247.427,304.583,246.996,303.29,246.249z"/>
			<g>
				<defs>
					<path id="SVGID_00000125586697403792418420000010471168371572836503_" d="M303.99,231.691l-26.161-15.104
						c-1.86-1.074-1.627-2.95,0.521-4.19l25.118-14.502c2.148-1.24,5.397-1.375,7.257-0.301l26.161,15.104
						c1.86,1.074,1.627,2.95-0.521,4.19l-25.118,14.502C309.099,232.63,305.85,232.764,303.99,231.691z"/>
				</defs>
				<clipPath id="SVGID_00000151514083595226891300000010658539056672345264_">
					<use xlink:href="#SVGID_00000125586697403792418420000010471168371572836503_"  style="overflow:visible;"/>
				</clipPath>
			</g>
		</g>
		<g style="opacity:0.5;">
			
				<linearGradient id="SVGID_00000009588631561900689620000012461558127527601073_" gradientUnits="userSpaceOnUse" x1="239.4927" y1="208.5466" x2="378.5569" y2="208.5466">
				<stop  offset="0" style="stop-color:#A31FA9"/>
				<stop  offset="0.0668" style="stop-color:#8B17A0"/>
				<stop  offset="0.1494" style="stop-color:#740F98"/>
				<stop  offset="0.2393" style="stop-color:#640A92"/>
				<stop  offset="0.3408" style="stop-color:#5B078F"/>
				<stop  offset="0.4785" style="stop-color:#58068E"/>
				<stop  offset="0.6264" style="stop-color:#4D22A3"/>
				<stop  offset="0.9436" style="stop-color:#3168DA"/>
				<stop  offset="1" style="stop-color:#2C75E4"/>
			</linearGradient>
			<path style="fill:url(#SVGID_00000009588631561900689620000012461558127527601073_);" d="M364.431,192.399h-24.054
				l-26.776-15.459c-3.449-1.991-9.472-1.741-13.454,0.558l-25.81,14.902h-24.042v16.148h0.008c-0.098,1.347,0.653,2.648,2.31,3.604
				l48.502,28.003c3.449,1.991,9.472,1.741,13.454-0.558l46.568-26.886c2.069-1.195,3.17-2.706,3.276-4.163h0.018V192.399z"/>
			<path style="fill:#D4088C;" d="M251.82,209.66h-0.008v-16.148h24.042l25.81-14.902c3.982-2.299,10.006-2.549,13.454-0.558
				l26.776,15.459h22.536v-1.113h-24.054l-26.776-15.459c-3.449-1.991-9.472-1.741-13.454,0.558l-25.81,14.902h-24.042v16.148h0.008
				c-0.098,1.347,0.653,2.648,2.31,3.604l0.273,0.158C252.107,211.515,251.751,210.6,251.82,209.66z"/>
			
				<linearGradient id="SVGID_00000034787837582155009330000017534370298238151827_" gradientUnits="userSpaceOnUse" x1="551.7195" y1="753.4373" x2="617.3164" y2="696.6288" gradientTransform="matrix(0.866 0.5 -1 0.5774 525.0016 -518.4943)">
				<stop  offset="0" style="stop-color:#8D139B"/>
				<stop  offset="0.1651" style="stop-color:#851BA1"/>
				<stop  offset="0.4284" style="stop-color:#6E33B2"/>
				<stop  offset="0.7551" style="stop-color:#4958CD"/>
				<stop  offset="1" style="stop-color:#2979E4"/>
			</linearGradient>
			<path style="fill:url(#SVGID_00000034787837582155009330000017534370298238151827_);" d="M301.114,224.006l-48.502-28.003
				c-3.449-1.991-3.016-5.469,0.966-7.768l46.568-26.886c3.982-2.299,10.006-2.549,13.454-0.558l48.502,28.003
				c3.449,1.991,3.016,5.469-0.966,7.768l-46.568,26.886C310.586,225.747,304.563,225.997,301.114,224.006z"/>
			<path style="fill:#6EE8FC;" d="M362.103,188.794l-48.502-28.003c-1.786-1.031-4.263-1.456-6.79-1.312
				c1.837,0.111,3.558,0.542,4.892,1.312l48.502,28.003c3.449,1.991,3.016,5.469-0.966,7.768l-46.568,26.886
				c-1.919,1.108-4.313,1.735-6.664,1.87c2.913,0.176,6.121-0.46,8.562-1.87l46.568-26.886
				C365.119,194.263,365.551,190.785,362.103,188.794z"/>
			<path style="fill:#480689;" d="M307.058,217.337c-1.706,0-3.338-0.345-4.556-1.048l-36.109-20.848
				c-1.252-0.723-1.941-1.742-1.941-2.871c0-1.331,0.97-2.654,2.66-3.63l34.67-20.017c3.074-1.774,7.752-1.961,10.431-0.415
				l36.11,20.848c1.252,0.722,1.94,1.741,1.94,2.87c0,1.332-0.97,2.655-2.66,3.63l-34.67,20.017
				C311.257,216.842,309.104,217.337,307.058,217.337z M307.656,168.276c-1.894,0-3.897,0.463-5.46,1.365l-34.67,20.017
				c-1.427,0.824-2.245,1.885-2.245,2.912c0,0.82,0.542,1.585,1.526,2.153l36.109,20.848c2.448,1.412,6.756,1.227,9.602-0.415
				l34.67-20.017c1.427-0.824,2.245-1.885,2.245-2.913c0-0.82-0.542-1.584-1.525-2.152l-36.11-20.848
				C310.694,168.589,309.211,168.276,307.656,168.276z"/>
			<path style="fill:#D4088C;" d="M303.29,224.006l-48.502-28.003c-3.449-1.991-3.016-5.469,0.966-7.768l46.568-26.886
				c1.891-1.091,4.241-1.715,6.558-1.862c-2.957-0.211-6.244,0.425-8.734,1.862l-46.568,26.886
				c-3.982,2.299-4.415,5.777-0.966,7.768l48.502,28.003c1.811,1.046,4.333,1.467,6.897,1.304
				C306.237,225.184,304.583,224.752,303.29,224.006z"/>
			<g>
				<defs>
					<path id="SVGID_00000130633057447359635800000003534325255367838397_" d="M303.99,209.447l-26.161-15.104
						c-1.86-1.074-1.627-2.95,0.521-4.19l25.118-14.502c2.148-1.24,5.397-1.375,7.257-0.301l26.161,15.104
						c1.86,1.074,1.627,2.95-0.521,4.19l-25.118,14.502C309.099,210.386,305.85,210.521,303.99,209.447z"/>
				</defs>
				<clipPath id="SVGID_00000097497406193150271750000000071399213805333947_">
					<use xlink:href="#SVGID_00000130633057447359635800000003534325255367838397_"  style="overflow:visible;"/>
				</clipPath>
			</g>
		</g>
		<g style="opacity:0.7;">
			
				<linearGradient id="SVGID_00000125601052943558070880000014100574865416410251_" gradientUnits="userSpaceOnUse" x1="239.4927" y1="186.3031" x2="378.5569" y2="186.3031">
				<stop  offset="0" style="stop-color:#A31FA9"/>
				<stop  offset="0.0668" style="stop-color:#8B17A0"/>
				<stop  offset="0.1494" style="stop-color:#740F98"/>
				<stop  offset="0.2393" style="stop-color:#640A92"/>
				<stop  offset="0.3408" style="stop-color:#5B078F"/>
				<stop  offset="0.4785" style="stop-color:#58068E"/>
				<stop  offset="0.6264" style="stop-color:#4D22A3"/>
				<stop  offset="0.9436" style="stop-color:#3168DA"/>
				<stop  offset="1" style="stop-color:#2C75E4"/>
			</linearGradient>
			<path style="fill:url(#SVGID_00000125601052943558070880000014100574865416410251_);" d="M364.431,170.155h-24.054
				l-26.776-15.459c-3.449-1.991-9.472-1.741-13.454,0.558l-25.81,14.902h-24.042v16.148h0.008c-0.098,1.348,0.653,2.648,2.31,3.605
				l48.502,28.003c3.449,1.991,9.472,1.741,13.454-0.558l46.568-26.886c2.069-1.194,3.17-2.706,3.276-4.163h0.018V170.155z"/>
			<path style="fill:#D4088C;" d="M251.82,187.416h-0.008v-16.148h24.042l25.81-14.902c3.982-2.299,10.006-2.549,13.454-0.558
				l26.776,15.459h22.536v-1.113h-24.054l-26.776-15.459c-3.449-1.991-9.472-1.741-13.454,0.558l-25.81,14.902h-24.042v16.148h0.008
				c-0.098,1.348,0.653,2.648,2.31,3.605l0.273,0.158C252.107,189.271,251.751,188.357,251.82,187.416z"/>
			
				<linearGradient id="SVGID_00000064317501481761512700000004738357117575975607_" gradientUnits="userSpaceOnUse" x1="529.4767" y1="734.175" x2="595.0735" y2="677.3665" gradientTransform="matrix(0.866 0.5 -1 0.5774 525.0016 -518.4943)">
				<stop  offset="0" style="stop-color:#8D139B"/>
				<stop  offset="0.1651" style="stop-color:#851BA1"/>
				<stop  offset="0.4284" style="stop-color:#6E33B2"/>
				<stop  offset="0.7551" style="stop-color:#4958CD"/>
				<stop  offset="1" style="stop-color:#2979E4"/>
			</linearGradient>
			<path style="fill:url(#SVGID_00000064317501481761512700000004738357117575975607_);" d="M301.114,201.762l-48.502-28.003
				c-3.449-1.991-3.016-5.469,0.966-7.768l46.568-26.886c3.982-2.299,10.006-2.549,13.454-0.558l48.502,28.003
				c3.449,1.991,3.016,5.469-0.966,7.768l-46.568,26.886C310.586,203.504,304.563,203.753,301.114,201.762z"/>
			<path style="fill:#6EE8FC;" d="M362.103,166.551l-48.502-28.003c-1.786-1.031-4.263-1.456-6.79-1.312
				c1.837,0.111,3.558,0.542,4.892,1.312l48.502,28.003c3.449,1.991,3.016,5.469-0.966,7.768l-46.568,26.886
				c-1.919,1.108-4.313,1.735-6.664,1.869c2.913,0.176,6.121-0.46,8.562-1.869l46.568-26.886
				C365.119,172.02,365.551,168.542,362.103,166.551z"/>
			<path style="fill:#480689;" d="M307.058,195.094c-1.706,0-3.338-0.345-4.556-1.048l-36.109-20.848
				c-1.252-0.723-1.941-1.742-1.941-2.871c0-1.331,0.97-2.654,2.66-3.63l34.67-20.017c3.074-1.774,7.752-1.961,10.431-0.416
				l36.11,20.848c1.252,0.722,1.94,1.742,1.94,2.87c0,1.332-0.97,2.655-2.66,3.631l-34.67,20.017
				C311.257,194.598,309.104,195.094,307.058,195.094z M302.916,193.328c2.45,1.414,6.758,1.227,9.602-0.415l34.67-20.017
				c1.427-0.824,2.245-1.886,2.245-2.913c0-0.82-0.542-1.584-1.525-2.152l-36.11-20.848c-2.449-1.413-6.757-1.226-9.602,0.415
				l-34.67,20.017c-1.427,0.824-2.245,1.885-2.245,2.912c0,0.82,0.542,1.585,1.526,2.153L302.916,193.328z"/>
			<path style="fill:#D4088C;" d="M303.29,201.762l-48.502-28.003c-3.449-1.991-3.016-5.469,0.966-7.768l46.568-26.886
				c1.891-1.091,4.241-1.715,6.558-1.862c-2.957-0.211-6.244,0.425-8.734,1.862l-46.568,26.886
				c-3.982,2.299-4.415,5.777-0.966,7.768l48.502,28.003c1.811,1.046,4.333,1.467,6.897,1.305
				C306.237,202.94,304.583,202.509,303.29,201.762z"/>
			<g>
				<defs>
					<path id="SVGID_00000177456311985804233520000002932610874240141757_" d="M303.99,187.204L277.829,172.1
						c-1.86-1.074-1.627-2.95,0.521-4.19l25.118-14.502c2.148-1.24,5.397-1.375,7.257-0.301l26.161,15.104
						c1.86,1.074,1.627,2.95-0.521,4.19l-25.118,14.502C309.099,188.143,305.85,188.278,303.99,187.204z"/>
				</defs>
				<clipPath id="SVGID_00000113333813870695946270000017836664804057576361_">
					<use xlink:href="#SVGID_00000177456311985804233520000002932610874240141757_"  style="overflow:visible;"/>
				</clipPath>
			</g>
		</g>
		<g>
			
				<linearGradient id="SVGID_00000037657255899903650060000004273618217655767224_" gradientUnits="userSpaceOnUse" x1="239.4927" y1="164.0597" x2="378.5569" y2="164.0597">
				<stop  offset="0" style="stop-color:#A31FA9"/>
				<stop  offset="0.0668" style="stop-color:#8B17A0"/>
				<stop  offset="0.1494" style="stop-color:#740F98"/>
				<stop  offset="0.2393" style="stop-color:#640A92"/>
				<stop  offset="0.3408" style="stop-color:#5B078F"/>
				<stop  offset="0.4785" style="stop-color:#58068E"/>
				<stop  offset="0.6264" style="stop-color:#4D22A3"/>
				<stop  offset="0.9436" style="stop-color:#3168DA"/>
				<stop  offset="1" style="stop-color:#2C75E4"/>
			</linearGradient>
			<path style="fill:url(#SVGID_00000037657255899903650060000004273618217655767224_);" d="M364.431,147.912h-24.054
				l-26.776-15.459c-3.449-1.991-9.472-1.741-13.454,0.558l-25.81,14.902h-24.042v16.148h0.008c-0.098,1.347,0.653,2.648,2.31,3.605
				l48.502,28.003c3.449,1.991,9.472,1.741,13.454-0.558l46.568-26.886c2.069-1.194,3.17-2.706,3.276-4.163h0.018V147.912z"/>
			<path style="fill:#D4088C;" d="M251.82,165.173h-0.008v-16.148h24.042l25.81-14.902c3.982-2.299,10.006-2.549,13.454-0.558
				l26.776,15.459h22.536v-1.113h-24.054l-26.776-15.459c-3.449-1.991-9.472-1.741-13.454,0.558l-25.81,14.902h-24.042v16.148h0.008
				c-0.098,1.347,0.653,2.648,2.31,3.605l0.273,0.158C252.107,167.028,251.751,166.113,251.82,165.173z"/>
			
				<linearGradient id="SVGID_00000044894957907646140220000000838491387570712727_" gradientUnits="userSpaceOnUse" x1="507.2339" y1="714.9128" x2="572.8307" y2="658.1042" gradientTransform="matrix(0.866 0.5 -1 0.5774 525.0016 -518.4943)">
				<stop  offset="0" style="stop-color:#267FE5"/>
				<stop  offset="0.1699" style="stop-color:#2C87E7"/>
				<stop  offset="0.441" style="stop-color:#3D9FEB"/>
				<stop  offset="0.7773" style="stop-color:#59C4F2"/>
				<stop  offset="1" style="stop-color:#6EE1F8"/>
			</linearGradient>
			<path style="fill:url(#SVGID_00000044894957907646140220000000838491387570712727_);" d="M301.114,179.519l-48.502-28.003
				c-3.449-1.991-3.016-5.469,0.966-7.768l46.568-26.886c3.982-2.299,10.006-2.549,13.454-0.558l48.502,28.003
				c3.449,1.991,3.016,5.469-0.966,7.768l-46.568,26.886C310.586,181.26,304.563,181.51,301.114,179.519z"/>
			<path style="fill:#6EE8FC;" d="M362.103,144.307l-48.502-28.003c-1.786-1.031-4.263-1.456-6.79-1.312
				c1.837,0.111,3.558,0.542,4.892,1.312l48.502,28.003c3.449,1.991,3.016,5.469-0.966,7.768l-46.568,26.886
				c-1.919,1.108-4.313,1.735-6.664,1.87c2.913,0.175,6.121-0.46,8.562-1.87l46.568-26.886
				C365.119,149.776,365.551,146.298,362.103,144.307z"/>
			
				<linearGradient id="SVGID_00000183215868723122536590000004601006737285759890_" gradientUnits="userSpaceOnUse" x1="264.4515" y1="147.9119" x2="350.263" y2="147.9119">
				<stop  offset="0" style="stop-color:#6DE0F6"/>
				<stop  offset="0.1595" style="stop-color:#68D8F5"/>
				<stop  offset="0.4138" style="stop-color:#5AC0F1"/>
				<stop  offset="0.7294" style="stop-color:#439BEA"/>
				<stop  offset="1" style="stop-color:#2C75E4"/>
			</linearGradient>
			<path style="fill:url(#SVGID_00000183215868723122536590000004601006737285759890_);" d="M307.058,172.85
				c-1.706,0-3.338-0.345-4.556-1.048l-36.109-20.848c-1.252-0.722-1.941-1.742-1.941-2.871c0-1.331,0.97-2.654,2.66-3.63
				l34.67-20.017c3.074-1.774,7.752-1.961,10.431-0.415l36.11,20.848c1.252,0.722,1.94,1.742,1.94,2.871
				c0,1.332-0.97,2.655-2.66,3.63l-34.67,20.017C311.257,172.355,309.104,172.85,307.058,172.85z M307.656,123.79
				c-1.894,0-3.897,0.463-5.46,1.365l-34.67,20.017c-1.427,0.824-2.245,1.885-2.245,2.912c0,0.82,0.542,1.585,1.526,2.153
				l36.109,20.848c2.448,1.412,6.756,1.227,9.602-0.415l34.67-20.017c1.427-0.824,2.245-1.885,2.245-2.913
				c0-0.82-0.542-1.584-1.525-2.153l-36.11-20.848C310.694,124.102,309.211,123.79,307.656,123.79z"/>
			<path style="fill:#25BFEC;" d="M303.29,179.519l-48.502-28.003c-3.449-1.991-3.016-5.469,0.966-7.768l46.568-26.886
				c1.891-1.091,4.241-1.715,6.558-1.862c-2.957-0.211-6.244,0.425-8.734,1.862l-46.568,26.886
				c-3.982,2.299-4.415,5.777-0.966,7.768l48.502,28.003c1.811,1.046,4.333,1.467,6.897,1.304
				C306.237,180.697,304.583,180.265,303.29,179.519z"/>
			<g>
				<defs>
					<path id="SVGID_00000011731981329262981750000005127195055536993946_" d="M303.99,164.96l-26.161-15.104
						c-1.86-1.074-1.627-2.95,0.521-4.19l25.118-14.502c2.148-1.24,5.397-1.375,7.257-0.301l26.161,15.104
						c1.86,1.074,1.627,2.95-0.521,4.19l-25.118,14.502C309.099,165.9,305.85,166.034,303.99,164.96z"/>
				</defs>
				<clipPath id="SVGID_00000177484166865921527210000013403254850580768183_">
					<use xlink:href="#SVGID_00000011731981329262981750000005127195055536993946_"  style="overflow:visible;"/>
				</clipPath>
			</g>
		</g>
	</g>
	<g>
		<g style="opacity:0.4;">
			
				<linearGradient id="SVGID_00000118397976624586269280000016188684401056509569_" gradientUnits="userSpaceOnUse" x1="317.3581" y1="279.4807" x2="456.4223" y2="279.4807">
				<stop  offset="0" style="stop-color:#A31FA9"/>
				<stop  offset="0.0668" style="stop-color:#8B17A0"/>
				<stop  offset="0.1494" style="stop-color:#740F98"/>
				<stop  offset="0.2393" style="stop-color:#640A92"/>
				<stop  offset="0.3408" style="stop-color:#5B078F"/>
				<stop  offset="0.4785" style="stop-color:#58068E"/>
				<stop  offset="0.6264" style="stop-color:#4D22A3"/>
				<stop  offset="0.9436" style="stop-color:#3168DA"/>
				<stop  offset="1" style="stop-color:#2C75E4"/>
			</linearGradient>
			<path style="fill:url(#SVGID_00000118397976624586269280000016188684401056509569_);" d="M442.296,263.333h-24.054
				l-26.776-15.459c-3.448-1.991-9.472-1.741-13.454,0.558l-25.81,14.902H328.16v16.148h0.008c-0.098,1.347,0.653,2.648,2.31,3.605
				l48.502,28.003c3.449,1.991,9.472,1.741,13.454-0.558l46.568-26.886c2.069-1.194,3.17-2.706,3.276-4.163h0.018V263.333z"/>
			<path style="fill:#D4088C;" d="M329.685,280.594h-0.008v-16.148h24.042l25.81-14.902c3.982-2.299,10.006-2.549,13.454-0.558
				l26.776,15.459h22.536v-1.113h-24.054l-26.776-15.459c-3.448-1.991-9.472-1.741-13.454,0.558l-25.81,14.902H328.16v16.148h0.008
				c-0.098,1.347,0.653,2.648,2.31,3.605l0.273,0.158C329.972,282.449,329.617,281.534,329.685,280.594z"/>
			
				<linearGradient id="SVGID_00000060736548386604373890000009699370544232831135_" gradientUnits="userSpaceOnUse" x1="667.6098" y1="775.933" x2="733.2067" y2="719.1244" gradientTransform="matrix(0.866 0.5 -1 0.5774 525.0016 -518.4943)">
				<stop  offset="0" style="stop-color:#8D139B"/>
				<stop  offset="0.1651" style="stop-color:#851BA1"/>
				<stop  offset="0.4284" style="stop-color:#6E33B2"/>
				<stop  offset="0.7551" style="stop-color:#4958CD"/>
				<stop  offset="1" style="stop-color:#2979E4"/>
			</linearGradient>
			<path style="fill:url(#SVGID_00000060736548386604373890000009699370544232831135_);" d="M378.98,294.94l-48.502-28.003
				c-3.449-1.991-3.016-5.469,0.966-7.768l46.568-26.886c3.982-2.299,10.006-2.549,13.454-0.558l48.502,28.003
				c3.449,1.991,3.016,5.469-0.966,7.768l-46.568,26.886C388.452,296.681,382.428,296.931,378.98,294.94z"/>
			<path style="fill:#6EE8FC;" d="M439.968,259.728l-48.502-28.003c-1.786-1.031-4.263-1.456-6.789-1.312
				c1.837,0.111,3.558,0.542,4.892,1.312l48.502,28.003c3.449,1.991,3.016,5.469-0.966,7.768l-46.568,26.886
				c-1.92,1.108-4.313,1.735-6.664,1.87c2.913,0.176,6.121-0.46,8.563-1.87l46.568-26.886
				C442.984,265.197,443.417,261.719,439.968,259.728z"/>
			<path style="fill:#480689;" d="M384.924,288.272c-1.707,0-3.339-0.345-4.557-1.048l-36.109-20.848
				c-1.252-0.723-1.941-1.742-1.941-2.871c0-1.331,0.969-2.654,2.659-3.631l34.67-20.017c3.073-1.772,7.754-1.962,10.432-0.415
				l36.109,20.848c1.252,0.723,1.94,1.742,1.94,2.871c0,1.331-0.97,2.654-2.66,3.631l-34.67,20.017
				C389.123,287.776,386.97,288.272,384.924,288.272z M385.521,239.211c-1.895,0-3.897,0.463-5.46,1.365l-34.67,20.017
				c-1.427,0.823-2.244,1.886-2.244,2.912c0,0.82,0.542,1.585,1.525,2.152l36.109,20.848c2.448,1.414,6.756,1.227,9.602-0.415
				l34.67-20.017c1.427-0.823,2.245-1.886,2.245-2.912c0-0.82-0.542-1.585-1.525-2.152l-36.109-20.848
				C388.56,239.523,387.077,239.211,385.521,239.211z"/>
			<path style="fill:#D4088C;" d="M381.155,294.94l-48.502-28.003c-3.449-1.991-3.016-5.469,0.966-7.768l46.568-26.886
				c1.89-1.091,4.241-1.715,6.558-1.862c-2.957-0.211-6.244,0.425-8.734,1.862l-46.568,26.886c-3.982,2.299-4.415,5.777-0.966,7.768
				l48.502,28.003c1.811,1.046,4.333,1.467,6.896,1.305C384.103,296.118,382.448,295.686,381.155,294.94z"/>
			<g>
				<defs>
					<path id="SVGID_00000083796122894323626790000015998486220496637593_" d="M381.855,280.381l-26.161-15.104
						c-1.86-1.074-1.627-2.95,0.521-4.19l25.118-14.502c2.148-1.24,5.397-1.375,7.257-0.301l26.161,15.104
						c1.86,1.074,1.627,2.95-0.521,4.19l-25.118,14.502C386.965,281.321,383.715,281.455,381.855,280.381z"/>
				</defs>
				<clipPath id="SVGID_00000059292641085828604000000006669403636216010654_">
					<use xlink:href="#SVGID_00000083796122894323626790000015998486220496637593_"  style="overflow:visible;"/>
				</clipPath>
			</g>
		</g>
		<g style="opacity:0.5;">
			
				<linearGradient id="SVGID_00000065790477116616663180000003594483942029173666_" gradientUnits="userSpaceOnUse" x1="317.3581" y1="257.2373" x2="456.4223" y2="257.2373">
				<stop  offset="0" style="stop-color:#A31FA9"/>
				<stop  offset="0.0668" style="stop-color:#8B17A0"/>
				<stop  offset="0.1494" style="stop-color:#740F98"/>
				<stop  offset="0.2393" style="stop-color:#640A92"/>
				<stop  offset="0.3408" style="stop-color:#5B078F"/>
				<stop  offset="0.4785" style="stop-color:#58068E"/>
				<stop  offset="0.6264" style="stop-color:#4D22A3"/>
				<stop  offset="0.9436" style="stop-color:#3168DA"/>
				<stop  offset="1" style="stop-color:#2C75E4"/>
			</linearGradient>
			<path style="fill:url(#SVGID_00000065790477116616663180000003594483942029173666_);" d="M442.296,241.089h-24.054
				l-26.776-15.459c-3.448-1.991-9.472-1.741-13.454,0.558l-25.81,14.902H328.16v16.148h0.008c-0.098,1.347,0.653,2.648,2.31,3.604
				l48.502,28.003c3.449,1.991,9.472,1.741,13.454-0.558l46.568-26.886c2.069-1.195,3.17-2.706,3.276-4.163h0.018V241.089z"/>
			<path style="fill:#D4088C;" d="M329.685,258.35h-0.008v-16.148h24.042l25.81-14.902c3.982-2.299,10.006-2.549,13.454-0.558
				l26.776,15.459h22.536v-1.113h-24.054l-26.776-15.459c-3.448-1.991-9.472-1.741-13.454,0.558l-25.81,14.902H328.16v16.148h0.008
				c-0.098,1.347,0.653,2.648,2.31,3.604l0.273,0.158C329.972,260.206,329.617,259.291,329.685,258.35z"/>
			
				<linearGradient id="SVGID_00000032625166899304950630000002456941729326483380_" gradientUnits="userSpaceOnUse" x1="645.367" y1="756.6707" x2="710.9639" y2="699.8621" gradientTransform="matrix(0.866 0.5 -1 0.5774 525.0016 -518.4943)">
				<stop  offset="0" style="stop-color:#8D139B"/>
				<stop  offset="0.1651" style="stop-color:#851BA1"/>
				<stop  offset="0.4284" style="stop-color:#6E33B2"/>
				<stop  offset="0.7551" style="stop-color:#4958CD"/>
				<stop  offset="1" style="stop-color:#2979E4"/>
			</linearGradient>
			<path style="fill:url(#SVGID_00000032625166899304950630000002456941729326483380_);" d="M378.98,272.697l-48.502-28.003
				c-3.449-1.991-3.016-5.469,0.966-7.768l46.568-26.886c3.982-2.299,10.006-2.549,13.454-0.558l48.502,28.003
				c3.449,1.991,3.016,5.469-0.966,7.768l-46.568,26.886C388.452,274.438,382.428,274.688,378.98,272.697z"/>
			<path style="fill:#6EE8FC;" d="M439.968,237.485l-48.502-28.003c-1.786-1.031-4.263-1.456-6.789-1.312
				c1.837,0.111,3.558,0.542,4.892,1.312l48.502,28.003c3.449,1.991,3.016,5.469-0.966,7.768l-46.568,26.886
				c-1.92,1.108-4.313,1.735-6.664,1.87c2.913,0.175,6.121-0.46,8.563-1.87l46.568-26.886
				C442.984,242.954,443.417,239.476,439.968,237.485z"/>
			<path style="fill:#480689;" d="M384.923,266.028c-1.706,0-3.338-0.345-4.556-1.048l-36.109-20.848
				c-1.252-0.723-1.941-1.742-1.941-2.871c0-1.332,0.969-2.655,2.659-3.631l34.67-20.017c3.074-1.775,7.755-1.96,10.432-0.415
				l36.109,20.848c1.251,0.723,1.94,1.741,1.94,2.87c0,1.332-0.969,2.655-2.66,3.632l-34.67,20.017
				C389.122,265.532,386.969,266.028,384.923,266.028z M385.521,216.967c-1.894,0-3.897,0.463-5.46,1.365l-34.67,20.018
				c-1.426,0.823-2.244,1.885-2.244,2.912c0,0.82,0.542,1.585,1.525,2.152l36.109,20.848c2.45,1.415,6.758,1.229,9.602-0.415
				l34.67-20.017c1.427-0.824,2.245-1.886,2.245-2.913c0-0.82-0.542-1.584-1.525-2.151l-36.109-20.849
				C388.56,217.28,387.077,216.967,385.521,216.967z"/>
			<path style="fill:#D4088C;" d="M381.155,272.697l-48.502-28.003c-3.449-1.991-3.016-5.469,0.966-7.768l46.568-26.886
				c1.89-1.092,4.241-1.715,6.558-1.862c-2.957-0.211-6.244,0.425-8.734,1.862l-46.568,26.886c-3.982,2.299-4.415,5.777-0.966,7.768
				l48.502,28.003c1.811,1.046,4.333,1.467,6.896,1.305C384.103,273.874,382.448,273.443,381.155,272.697z"/>
			<g>
				<defs>
					<path id="SVGID_00000160899381065603129150000003391524489298092966_" d="M381.855,258.138l-26.161-15.104
						c-1.86-1.074-1.627-2.95,0.521-4.19l25.118-14.502c2.148-1.24,5.397-1.375,7.257-0.301l26.161,15.104
						c1.86,1.074,1.627,2.95-0.521,4.19l-25.118,14.502C386.965,259.077,383.715,259.212,381.855,258.138z"/>
				</defs>
				<clipPath id="SVGID_00000121985583912841370180000001481058602641022849_">
					<use xlink:href="#SVGID_00000160899381065603129150000003391524489298092966_"  style="overflow:visible;"/>
				</clipPath>
			</g>
		</g>
		<g style="opacity:0.7;">
			
				<linearGradient id="SVGID_00000026129560752775277830000018084453975340817799_" gradientUnits="userSpaceOnUse" x1="317.3581" y1="234.9938" x2="456.4223" y2="234.9938">
				<stop  offset="0" style="stop-color:#A31FA9"/>
				<stop  offset="0.0668" style="stop-color:#8B17A0"/>
				<stop  offset="0.1494" style="stop-color:#740F98"/>
				<stop  offset="0.2393" style="stop-color:#640A92"/>
				<stop  offset="0.3408" style="stop-color:#5B078F"/>
				<stop  offset="0.4785" style="stop-color:#58068E"/>
				<stop  offset="0.6264" style="stop-color:#4D22A3"/>
				<stop  offset="0.9436" style="stop-color:#3168DA"/>
				<stop  offset="1" style="stop-color:#2C75E4"/>
			</linearGradient>
			<path style="fill:url(#SVGID_00000026129560752775277830000018084453975340817799_);" d="M442.296,218.846h-24.054
				l-26.776-15.459c-3.448-1.991-9.472-1.741-13.454,0.558l-25.81,14.902H328.16v16.148h0.008c-0.098,1.347,0.653,2.648,2.31,3.605
				l48.502,28.003c3.449,1.991,9.472,1.741,13.454-0.558l46.568-26.886c2.069-1.194,3.17-2.706,3.276-4.163h0.018V218.846z"/>
			<path style="fill:#D4088C;" d="M329.685,236.107h-0.008v-16.148h24.042l25.81-14.902c3.982-2.299,10.006-2.549,13.454-0.558
				l26.776,15.459h22.536v-1.113h-24.054l-26.776-15.459c-3.448-1.991-9.472-1.741-13.454,0.558l-25.81,14.902H328.16v16.148h0.008
				c-0.098,1.347,0.653,2.648,2.31,3.605l0.273,0.158C329.972,237.962,329.617,237.047,329.685,236.107z"/>
			
				<linearGradient id="SVGID_00000061437539173980244850000005720034551520496044_" gradientUnits="userSpaceOnUse" x1="623.1242" y1="737.4084" x2="688.7211" y2="680.5999" gradientTransform="matrix(0.866 0.5 -1 0.5774 525.0016 -518.4943)">
				<stop  offset="0" style="stop-color:#8D139B"/>
				<stop  offset="0.1651" style="stop-color:#851BA1"/>
				<stop  offset="0.4284" style="stop-color:#6E33B2"/>
				<stop  offset="0.7551" style="stop-color:#4958CD"/>
				<stop  offset="1" style="stop-color:#2979E4"/>
			</linearGradient>
			<path style="fill:url(#SVGID_00000061437539173980244850000005720034551520496044_);" d="M378.98,250.453l-48.502-28.003
				c-3.449-1.991-3.016-5.469,0.966-7.768l46.568-26.886c3.982-2.299,10.006-2.549,13.454-0.558l48.502,28.003
				c3.449,1.991,3.016,5.469-0.966,7.768l-46.568,26.886C388.452,252.195,382.428,252.444,378.98,250.453z"/>
			<path style="fill:#6EE8FC;" d="M439.968,215.241l-48.502-28.003c-1.786-1.031-4.263-1.456-6.789-1.312
				c1.837,0.111,3.558,0.542,4.892,1.312l48.502,28.003c3.449,1.991,3.016,5.469-0.966,7.768l-46.568,26.886
				c-1.92,1.108-4.313,1.735-6.664,1.87c2.913,0.176,6.121-0.46,8.563-1.87l46.568-26.886
				C442.984,220.71,443.417,217.232,439.968,215.241z"/>
			<path style="fill:#480689;" d="M384.923,243.784c-1.706,0-3.338-0.345-4.556-1.047l-36.109-20.849
				c-1.252-0.722-1.941-1.742-1.941-2.871c0-1.332,0.969-2.655,2.659-3.63l34.67-20.017c3.074-1.775,7.755-1.96,10.432-0.415
				l36.109,20.848c1.252,0.722,1.94,1.741,1.94,2.87c0,1.332-0.97,2.655-2.66,3.63l-34.67,20.017
				C389.122,243.289,386.969,243.784,384.923,243.784z M380.782,242.019c2.45,1.415,6.758,1.227,9.602-0.416l34.67-20.016
				c1.427-0.824,2.245-1.885,2.245-2.913c0-0.82-0.542-1.584-1.525-2.152l-36.109-20.848c-2.448-1.413-6.758-1.229-9.603,0.415
				l-34.67,20.017c-1.426,0.824-2.244,1.885-2.244,2.913c0,0.82,0.542,1.584,1.525,2.153L380.782,242.019z"/>
			<path style="fill:#D4088C;" d="M381.155,250.453l-48.502-28.003c-3.449-1.991-3.016-5.469,0.966-7.768l46.568-26.886
				c1.89-1.092,4.241-1.715,6.558-1.862c-2.957-0.211-6.244,0.425-8.734,1.862l-46.568,26.886c-3.982,2.299-4.415,5.777-0.966,7.768
				l48.502,28.003c1.811,1.046,4.333,1.467,6.896,1.305C384.103,251.631,382.448,251.2,381.155,250.453z"/>
			<g>
				<defs>
					<path id="SVGID_00000085230057268622569750000001222084665135299487_" d="M381.855,235.894l-26.161-15.104
						c-1.86-1.074-1.627-2.95,0.521-4.19l25.118-14.502c2.148-1.24,5.397-1.375,7.257-0.301l26.161,15.104
						c1.86,1.074,1.627,2.95-0.521,4.19l-25.118,14.502C386.965,236.834,383.715,236.968,381.855,235.894z"/>
				</defs>
				<clipPath id="SVGID_00000152946090490158918230000007183394623424157341_">
					<use xlink:href="#SVGID_00000085230057268622569750000001222084665135299487_"  style="overflow:visible;"/>
				</clipPath>
			</g>
		</g>
		<g>
			
				<linearGradient id="SVGID_00000118391893442479997550000004965511120530246326_" gradientUnits="userSpaceOnUse" x1="317.3581" y1="212.7504" x2="456.4223" y2="212.7504">
				<stop  offset="0" style="stop-color:#A31FA9"/>
				<stop  offset="0.0668" style="stop-color:#8B17A0"/>
				<stop  offset="0.1494" style="stop-color:#740F98"/>
				<stop  offset="0.2393" style="stop-color:#640A92"/>
				<stop  offset="0.3408" style="stop-color:#5B078F"/>
				<stop  offset="0.4785" style="stop-color:#58068E"/>
				<stop  offset="0.6264" style="stop-color:#4D22A3"/>
				<stop  offset="0.9436" style="stop-color:#3168DA"/>
				<stop  offset="1" style="stop-color:#2C75E4"/>
			</linearGradient>
			<path style="fill:url(#SVGID_00000118391893442479997550000004965511120530246326_);" d="M442.296,196.602h-24.054
				l-26.776-15.459c-3.448-1.991-9.472-1.741-13.454,0.558l-25.81,14.902H328.16v16.148h0.008c-0.098,1.347,0.653,2.648,2.31,3.605
				l48.502,28.003c3.449,1.991,9.472,1.741,13.454-0.558l46.568-26.886c2.069-1.194,3.17-2.706,3.276-4.163h0.018V196.602z"/>
			<path style="fill:#D4088C;" d="M329.685,213.863h-0.008v-16.148h24.042l25.81-14.902c3.982-2.299,10.006-2.549,13.454-0.558
				l26.776,15.459h22.536v-1.113h-24.054l-26.776-15.459c-3.448-1.991-9.472-1.741-13.454,0.558l-25.81,14.902H328.16v16.148h0.008
				c-0.098,1.347,0.653,2.648,2.31,3.605l0.273,0.158C329.972,215.719,329.617,214.804,329.685,213.863z"/>
			
				<linearGradient id="SVGID_00000168795021853096175460000013388670784833311402_" gradientUnits="userSpaceOnUse" x1="600.8814" y1="718.1462" x2="666.4783" y2="661.3376" gradientTransform="matrix(0.866 0.5 -1 0.5774 525.0016 -518.4943)">
				<stop  offset="0" style="stop-color:#267FE5"/>
				<stop  offset="0.1699" style="stop-color:#2C87E7"/>
				<stop  offset="0.441" style="stop-color:#3D9FEB"/>
				<stop  offset="0.7773" style="stop-color:#59C4F2"/>
				<stop  offset="1" style="stop-color:#6EE1F8"/>
			</linearGradient>
			<path style="fill:url(#SVGID_00000168795021853096175460000013388670784833311402_);" d="M378.98,228.21l-48.502-28.003
				c-3.449-1.991-3.016-5.469,0.966-7.768l46.568-26.886c3.982-2.299,10.006-2.549,13.454-0.558l48.502,28.003
				c3.449,1.991,3.016,5.469-0.966,7.768l-46.568,26.886C388.452,229.951,382.428,230.201,378.98,228.21z"/>
			<path style="fill:#6EE8FC;" d="M439.968,192.998l-48.502-28.003c-1.786-1.031-4.263-1.456-6.789-1.312
				c1.837,0.111,3.558,0.542,4.892,1.312l48.502,28.003c3.449,1.991,3.016,5.469-0.966,7.768l-46.568,26.886
				c-1.92,1.108-4.313,1.735-6.664,1.87c2.913,0.175,6.121-0.46,8.563-1.87l46.568-26.886
				C442.984,198.467,443.417,194.989,439.968,192.998z"/>
			
				<linearGradient id="SVGID_00000075878518344750559450000010329832775043237525_" gradientUnits="userSpaceOnUse" x1="342.3177" y1="196.6028" x2="428.1283" y2="196.6028">
				<stop  offset="0" style="stop-color:#6DE0F6"/>
				<stop  offset="0.1595" style="stop-color:#68D8F5"/>
				<stop  offset="0.4138" style="stop-color:#5AC0F1"/>
				<stop  offset="0.7294" style="stop-color:#439BEA"/>
				<stop  offset="1" style="stop-color:#2C75E4"/>
			</linearGradient>
			<path style="fill:url(#SVGID_00000075878518344750559450000010329832775043237525_);" d="M384.924,221.541
				c-1.707,0-3.339-0.345-4.557-1.048l-36.109-20.848c-1.252-0.722-1.941-1.742-1.941-2.871c0-1.331,0.969-2.654,2.659-3.63
				l34.67-20.017c3.074-1.774,7.755-1.961,10.432-0.415l36.109,20.848c1.252,0.722,1.94,1.742,1.94,2.87
				c0,1.331-0.97,2.655-2.66,3.631l-34.67,20.017C389.123,221.045,386.969,221.541,384.924,221.541z M380.782,219.775
				c2.45,1.414,6.758,1.228,9.602-0.416l34.67-20.017c1.427-0.824,2.245-1.886,2.245-2.913c0-0.82-0.542-1.584-1.525-2.152
				l-36.109-20.848c-2.448-1.413-6.758-1.226-9.603,0.415l-34.67,20.017c-1.427,0.824-2.244,1.886-2.244,2.913
				c0,0.82,0.542,1.585,1.525,2.153L380.782,219.775z"/>
			<path style="fill:#25BFEC;" d="M381.155,228.21l-48.502-28.003c-3.449-1.991-3.016-5.469,0.966-7.768l46.568-26.886
				c1.89-1.091,4.241-1.715,6.558-1.862c-2.957-0.211-6.244,0.425-8.734,1.862l-46.568,26.886c-3.982,2.299-4.415,5.777-0.966,7.768
				l48.502,28.003c1.811,1.046,4.333,1.467,6.896,1.304C384.103,229.387,382.448,228.956,381.155,228.21z"/>
			<g>
				<path style="fill:#6DE0F6;" d="M393.818,237.201l41.028-23.731c0.375-0.217,0.68-0.798,0.68-1.298v-1.941
					c0-0.5-0.304-0.73-0.68-0.514l-41.028,23.731c-0.375,0.217-0.68,0.798-0.68,1.298v1.941
					C393.138,237.187,393.442,237.417,393.818,237.201z"/>
				<path style="fill:#267FE5;" d="M433.947,212.956c0.375-0.217,0.68-0.798,0.68-1.298v-1.816l0.219-0.126
					c0.375-0.217,0.68,0.013,0.68,0.514v1.942c0,0.5-0.304,1.082-0.68,1.298l-41.028,23.731c-0.375,0.217-0.679-0.013-0.679-0.514
					v-0.126L433.947,212.956z"/>
			</g>
		</g>
	</g>
	<g>
		<g style="opacity:0.4;">
			
				<linearGradient id="SVGID_00000080886437447610345180000016689606376685382070_" gradientUnits="userSpaceOnUse" x1="161.1721" y1="275.4928" x2="300.2362" y2="275.4928">
				<stop  offset="0" style="stop-color:#A31FA9"/>
				<stop  offset="0.0668" style="stop-color:#8B17A0"/>
				<stop  offset="0.1494" style="stop-color:#740F98"/>
				<stop  offset="0.2393" style="stop-color:#640A92"/>
				<stop  offset="0.3408" style="stop-color:#5B078F"/>
				<stop  offset="0.4785" style="stop-color:#58068E"/>
				<stop  offset="0.6264" style="stop-color:#4D22A3"/>
				<stop  offset="0.9436" style="stop-color:#3168DA"/>
				<stop  offset="1" style="stop-color:#2C75E4"/>
			</linearGradient>
			<path style="fill:url(#SVGID_00000080886437447610345180000016689606376685382070_);" d="M286.11,259.345h-24.054l-26.776-15.459
				c-3.449-1.991-9.472-1.741-13.454,0.558l-25.81,14.902h-24.042v16.148h0.008c-0.098,1.347,0.653,2.648,2.31,3.604l48.502,28.003
				c3.448,1.991,9.472,1.741,13.454-0.558l46.568-26.886c2.069-1.194,3.17-2.706,3.276-4.163h0.018V259.345z"/>
			<path style="fill:#D4088C;" d="M173.499,276.606h-0.007v-16.148h24.042l25.81-14.902c3.982-2.299,10.006-2.549,13.454-0.558
				l26.776,15.459h22.536v-1.113h-24.054l-26.776-15.459c-3.448-1.991-9.472-1.741-13.454,0.558l-25.81,14.902h-24.042v16.148h0.007
				c-0.098,1.347,0.654,2.648,2.31,3.604l0.273,0.158C173.786,278.461,173.431,277.546,173.499,276.606z"/>
			
				<linearGradient id="SVGID_00000170993303840888980050000003400376851056028833_" gradientUnits="userSpaceOnUse" x1="573.4427" y1="850.5703" x2="639.0396" y2="793.7618" gradientTransform="matrix(0.866 0.5 -1 0.5774 525.0016 -518.4943)">
				<stop  offset="0" style="stop-color:#8D139B"/>
				<stop  offset="0.1651" style="stop-color:#851BA1"/>
				<stop  offset="0.4284" style="stop-color:#6E33B2"/>
				<stop  offset="0.7551" style="stop-color:#4958CD"/>
				<stop  offset="1" style="stop-color:#2979E4"/>
			</linearGradient>
			<path style="fill:url(#SVGID_00000170993303840888980050000003400376851056028833_);" d="M222.794,290.952l-48.502-28.003
				c-3.449-1.991-3.016-5.469,0.966-7.768l46.568-26.886c3.982-2.299,10.006-2.549,13.454-0.558l48.502,28.003
				c3.449,1.991,3.016,5.469-0.966,7.768l-46.568,26.886C232.266,292.694,226.242,292.943,222.794,290.952z"/>
			<path style="fill:#6EE8FC;" d="M283.782,255.74l-48.502-28.003c-1.786-1.031-4.263-1.456-6.79-1.312
				c1.837,0.111,3.558,0.542,4.892,1.312l48.502,28.003c3.449,1.991,3.016,5.469-0.966,7.768l-46.568,26.886
				c-1.92,1.108-4.313,1.735-6.664,1.87c2.913,0.176,6.121-0.46,8.562-1.87l46.568-26.886
				C286.798,261.209,287.231,257.731,283.782,255.74z"/>
			<path style="fill:#480689;" d="M228.739,284.283c-1.707,0-3.339-0.345-4.557-1.048l-36.11-20.848
				c-1.252-0.723-1.94-1.742-1.94-2.871c0-1.331,0.97-2.654,2.66-3.631l34.67-20.017c3.074-1.775,7.754-1.961,10.431-0.415
				l36.109,20.848c1.252,0.723,1.941,1.742,1.941,2.871c0,1.331-0.97,2.654-2.66,3.631l-34.67,20.017
				C232.937,283.788,230.784,284.283,228.739,284.283z M229.335,235.223c-1.895,0-3.897,0.463-5.46,1.365l-34.67,20.017
				c-1.427,0.823-2.245,1.886-2.245,2.912c0,0.82,0.542,1.585,1.525,2.152l36.11,20.848c2.45,1.415,6.757,1.228,9.603-0.415
				l34.67-20.017c1.427-0.823,2.245-1.885,2.245-2.912c0-0.819-0.542-1.584-1.526-2.152l-36.109-20.848
				C232.373,235.535,230.891,235.223,229.335,235.223z"/>
			<path style="fill:#D4088C;" d="M224.969,290.952l-48.502-28.003c-3.449-1.991-3.016-5.469,0.966-7.768l46.568-26.886
				c1.891-1.091,4.241-1.715,6.558-1.862c-2.957-0.211-6.244,0.425-8.734,1.862l-46.568,26.886
				c-3.982,2.299-4.415,5.777-0.966,7.768l48.502,28.003c1.811,1.046,4.333,1.467,6.896,1.305
				C227.917,292.13,226.262,291.698,224.969,290.952z"/>
			<g>
				<defs>
					<path id="SVGID_00000088816741928032800100000015358209707526958743_" d="M225.669,276.393l-26.161-15.104
						c-1.86-1.074-1.627-2.95,0.521-4.19l25.118-14.502c2.148-1.24,5.397-1.375,7.257-0.301l26.161,15.104
						c1.86,1.074,1.627,2.95-0.521,4.19l-25.118,14.502C230.779,277.333,227.529,277.467,225.669,276.393z"/>
				</defs>
				<clipPath id="SVGID_00000071522010526790426330000011901864080795591080_">
					<use xlink:href="#SVGID_00000088816741928032800100000015358209707526958743_"  style="overflow:visible;"/>
				</clipPath>
			</g>
		</g>
		<g style="opacity:0.5;">
			
				<linearGradient id="SVGID_00000109719389958295645230000000404787944011186599_" gradientUnits="userSpaceOnUse" x1="161.1721" y1="253.2493" x2="300.2362" y2="253.2493">
				<stop  offset="0" style="stop-color:#A31FA9"/>
				<stop  offset="0.0668" style="stop-color:#8B17A0"/>
				<stop  offset="0.1494" style="stop-color:#740F98"/>
				<stop  offset="0.2393" style="stop-color:#640A92"/>
				<stop  offset="0.3408" style="stop-color:#5B078F"/>
				<stop  offset="0.4785" style="stop-color:#58068E"/>
				<stop  offset="0.6264" style="stop-color:#4D22A3"/>
				<stop  offset="0.9436" style="stop-color:#3168DA"/>
				<stop  offset="1" style="stop-color:#2C75E4"/>
			</linearGradient>
			<path style="fill:url(#SVGID_00000109719389958295645230000000404787944011186599_);" d="M286.11,237.102h-24.054l-26.776-15.459
				c-3.449-1.991-9.472-1.741-13.454,0.558l-25.81,14.902h-24.042v16.148h0.008c-0.098,1.348,0.653,2.648,2.31,3.605l48.502,28.003
				c3.448,1.991,9.472,1.741,13.454-0.558l46.568-26.886c2.069-1.194,3.17-2.706,3.276-4.163h0.018V237.102z"/>
			<path style="fill:#D4088C;" d="M173.499,254.362h-0.007v-16.148h24.042l25.81-14.902c3.982-2.299,10.006-2.549,13.454-0.558
				l26.776,15.459h22.536v-1.113h-24.054l-26.776-15.459c-3.448-1.991-9.472-1.741-13.454,0.558l-25.81,14.902h-24.042v16.148h0.007
				c-0.098,1.348,0.654,2.648,2.31,3.605l0.273,0.158C173.786,256.218,173.431,255.303,173.499,254.362z"/>
			
				<linearGradient id="SVGID_00000129186612785963707750000007819503296797314459_" gradientUnits="userSpaceOnUse" x1="551.1999" y1="831.308" x2="616.7968" y2="774.4995" gradientTransform="matrix(0.866 0.5 -1 0.5774 525.0016 -518.4943)">
				<stop  offset="0" style="stop-color:#8D139B"/>
				<stop  offset="0.1651" style="stop-color:#851BA1"/>
				<stop  offset="0.4284" style="stop-color:#6E33B2"/>
				<stop  offset="0.7551" style="stop-color:#4958CD"/>
				<stop  offset="1" style="stop-color:#2979E4"/>
			</linearGradient>
			<path style="fill:url(#SVGID_00000129186612785963707750000007819503296797314459_);" d="M222.794,268.709l-48.502-28.003
				c-3.449-1.991-3.016-5.469,0.966-7.768l46.568-26.886c3.982-2.299,10.006-2.549,13.454-0.558l48.502,28.003
				c3.449,1.991,3.016,5.469-0.966,7.768l-46.568,26.886C232.266,270.45,226.242,270.7,222.794,268.709z"/>
			<path style="fill:#6EE8FC;" d="M283.782,233.497l-48.502-28.003c-1.786-1.031-4.263-1.456-6.79-1.312
				c1.837,0.111,3.558,0.542,4.892,1.312l48.502,28.003c3.449,1.991,3.016,5.469-0.966,7.768l-46.568,26.886
				c-1.92,1.108-4.313,1.735-6.664,1.87c2.913,0.176,6.121-0.46,8.562-1.87l46.568-26.886
				C286.798,238.966,287.231,235.488,283.782,233.497z"/>
			<path style="fill:#480689;" d="M228.739,262.04c-1.707,0-3.339-0.345-4.557-1.048l-36.11-20.848
				c-1.252-0.723-1.94-1.742-1.94-2.871c0-1.331,0.97-2.654,2.66-3.631l34.67-20.016c3.073-1.774,7.752-1.962,10.431-0.416
				l36.109,20.848c1.252,0.723,1.941,1.742,1.941,2.871c0,1.331-0.97,2.654-2.66,3.631l-34.67,20.017
				C232.937,261.545,230.784,262.04,228.739,262.04z M229.335,212.98c-1.895,0-3.897,0.463-5.46,1.365l-34.67,20.017
				c-1.427,0.823-2.245,1.886-2.245,2.912c0,0.82,0.542,1.585,1.525,2.152l36.11,20.848c2.45,1.415,6.757,1.229,9.603-0.415
				l34.67-20.017c1.427-0.823,2.245-1.885,2.245-2.912c0-0.819-0.542-1.584-1.526-2.152l-36.109-20.849
				C232.373,213.292,230.891,212.98,229.335,212.98z"/>
			<path style="fill:#D4088C;" d="M224.969,268.709l-48.502-28.003c-3.449-1.991-3.016-5.469,0.966-7.768l46.568-26.886
				c1.891-1.092,4.241-1.715,6.558-1.862c-2.957-0.211-6.244,0.425-8.734,1.862l-46.568,26.886
				c-3.982,2.299-4.415,5.777-0.966,7.768l48.502,28.003c1.811,1.046,4.333,1.467,6.896,1.305
				C227.917,269.887,226.262,269.455,224.969,268.709z"/>
			<g>
				<defs>
					<path id="SVGID_00000163777276917213731090000011294931799474041991_" d="M225.669,254.15l-26.161-15.104
						c-1.86-1.074-1.627-2.95,0.521-4.19l25.118-14.502c2.148-1.24,5.397-1.375,7.257-0.301l26.161,15.104
						c1.86,1.074,1.627,2.95-0.521,4.19l-25.118,14.502C230.779,255.089,227.529,255.224,225.669,254.15z"/>
				</defs>
				<clipPath id="SVGID_00000078749196913768162920000012671260342380326069_">
					<use xlink:href="#SVGID_00000163777276917213731090000011294931799474041991_"  style="overflow:visible;"/>
				</clipPath>
			</g>
		</g>
		<g style="opacity:0.7;">
			
				<linearGradient id="SVGID_00000132780467070456320590000008847817159881122983_" gradientUnits="userSpaceOnUse" x1="161.1721" y1="231.0059" x2="300.2362" y2="231.0059">
				<stop  offset="0" style="stop-color:#A31FA9"/>
				<stop  offset="0.0668" style="stop-color:#8B17A0"/>
				<stop  offset="0.1494" style="stop-color:#740F98"/>
				<stop  offset="0.2393" style="stop-color:#640A92"/>
				<stop  offset="0.3408" style="stop-color:#5B078F"/>
				<stop  offset="0.4785" style="stop-color:#58068E"/>
				<stop  offset="0.6264" style="stop-color:#4D22A3"/>
				<stop  offset="0.9436" style="stop-color:#3168DA"/>
				<stop  offset="1" style="stop-color:#2C75E4"/>
			</linearGradient>
			<path style="fill:url(#SVGID_00000132780467070456320590000008847817159881122983_);" d="M286.11,214.858h-24.054l-26.776-15.459
				c-3.449-1.991-9.472-1.741-13.454,0.558l-25.81,14.902h-24.042v16.148h0.008c-0.098,1.347,0.653,2.648,2.31,3.604l48.502,28.003
				c3.448,1.991,9.472,1.741,13.454-0.558l46.568-26.886c2.069-1.194,3.17-2.706,3.276-4.163h0.018V214.858z"/>
			<path style="fill:#D4088C;" d="M173.499,232.119h-0.007v-16.148h24.042l25.81-14.902c3.982-2.299,10.006-2.549,13.454-0.558
				l26.776,15.459h22.536v-1.113h-24.054l-26.776-15.459c-3.448-1.991-9.472-1.741-13.454,0.558l-25.81,14.902h-24.042v16.148h0.007
				c-0.098,1.347,0.654,2.648,2.31,3.604l0.273,0.158C173.786,233.974,173.431,233.059,173.499,232.119z"/>
			
				<linearGradient id="SVGID_00000065034664479358649030000005731068405967342755_" gradientUnits="userSpaceOnUse" x1="528.9572" y1="812.0458" x2="594.554" y2="755.2372" gradientTransform="matrix(0.866 0.5 -1 0.5774 525.0016 -518.4943)">
				<stop  offset="0" style="stop-color:#8D139B"/>
				<stop  offset="0.1651" style="stop-color:#851BA1"/>
				<stop  offset="0.4284" style="stop-color:#6E33B2"/>
				<stop  offset="0.7551" style="stop-color:#4958CD"/>
				<stop  offset="1" style="stop-color:#2979E4"/>
			</linearGradient>
			<path style="fill:url(#SVGID_00000065034664479358649030000005731068405967342755_);" d="M222.794,246.465l-48.502-28.003
				c-3.449-1.991-3.016-5.469,0.966-7.768l46.568-26.886c3.982-2.299,10.006-2.549,13.454-0.558l48.502,28.003
				c3.449,1.991,3.016,5.469-0.966,7.768l-46.568,26.886C232.266,248.207,226.242,248.456,222.794,246.465z"/>
			<path style="fill:#6EE8FC;" d="M283.782,211.253l-48.502-28.003c-1.786-1.031-4.263-1.456-6.79-1.312
				c1.837,0.111,3.558,0.542,4.892,1.312l48.502,28.003c3.449,1.991,3.016,5.469-0.966,7.768l-46.568,26.886
				c-1.92,1.108-4.313,1.735-6.664,1.87c2.913,0.176,6.121-0.46,8.562-1.87l46.568-26.886
				C286.798,216.722,287.231,213.245,283.782,211.253z"/>
			<path style="fill:#480689;" d="M228.738,239.797c-1.707,0-3.339-0.345-4.556-1.048l-36.11-20.849
				c-1.252-0.722-1.94-1.742-1.94-2.87c0-1.332,0.97-2.655,2.66-3.631l34.67-20.017c3.073-1.775,7.752-1.962,10.431-0.415
				l36.109,20.848c1.252,0.723,1.941,1.742,1.941,2.871c0,1.332-0.97,2.654-2.66,3.63l-34.67,20.018
				C232.937,239.301,230.784,239.796,228.738,239.797z M229.335,190.736c-1.893,0-3.897,0.463-5.46,1.365l-34.67,20.017
				c-1.427,0.824-2.245,1.886-2.245,2.913c0,0.82,0.542,1.584,1.525,2.152l36.11,20.848c2.45,1.414,6.756,1.227,9.603-0.415
				l34.67-20.017c1.427-0.824,2.245-1.885,2.245-2.912c0-0.82-0.542-1.585-1.526-2.153l-36.109-20.848
				C232.373,191.048,230.891,190.736,229.335,190.736z"/>
			<path style="fill:#D4088C;" d="M224.969,246.465l-48.502-28.003c-3.449-1.991-3.016-5.469,0.966-7.768l46.568-26.886
				c1.891-1.092,4.241-1.715,6.558-1.862c-2.957-0.211-6.244,0.425-8.734,1.862l-46.568,26.886
				c-3.982,2.299-4.415,5.777-0.966,7.768l48.502,28.003c1.811,1.046,4.333,1.467,6.896,1.305
				C227.917,247.643,226.262,247.212,224.969,246.465z"/>
			<g>
				<defs>
					<path id="SVGID_00000010288175580892480170000003944038748704226469_" d="M225.669,231.906l-26.161-15.104
						c-1.86-1.074-1.627-2.95,0.521-4.19l25.118-14.502c2.148-1.24,5.397-1.375,7.257-0.301l26.161,15.104
						c1.86,1.074,1.627,2.95-0.521,4.19l-25.118,14.502C230.779,232.846,227.529,232.98,225.669,231.906z"/>
				</defs>
				<clipPath id="SVGID_00000034055805255969263360000003738493087715574457_">
					<use xlink:href="#SVGID_00000010288175580892480170000003944038748704226469_"  style="overflow:visible;"/>
				</clipPath>
			</g>
		</g>
		<g>
			
				<linearGradient id="SVGID_00000078724334630263698710000000297406628024510130_" gradientUnits="userSpaceOnUse" x1="161.1721" y1="208.7625" x2="300.2362" y2="208.7625">
				<stop  offset="0" style="stop-color:#A31FA9"/>
				<stop  offset="0.0668" style="stop-color:#8B17A0"/>
				<stop  offset="0.1494" style="stop-color:#740F98"/>
				<stop  offset="0.2393" style="stop-color:#640A92"/>
				<stop  offset="0.3408" style="stop-color:#5B078F"/>
				<stop  offset="0.4785" style="stop-color:#58068E"/>
				<stop  offset="0.6264" style="stop-color:#4D22A3"/>
				<stop  offset="0.9436" style="stop-color:#3168DA"/>
				<stop  offset="1" style="stop-color:#2C75E4"/>
			</linearGradient>
			<path style="fill:url(#SVGID_00000078724334630263698710000000297406628024510130_);" d="M286.11,192.615h-24.054l-26.776-15.459
				c-3.449-1.991-9.472-1.741-13.454,0.558l-25.81,14.902h-24.042v16.148h0.008c-0.098,1.347,0.653,2.648,2.31,3.605l48.502,28.003
				c3.448,1.991,9.472,1.741,13.454-0.558l46.568-26.886c2.069-1.194,3.17-2.706,3.276-4.163h0.018V192.615z"/>
			<path style="fill:#D4088C;" d="M173.499,209.876h-0.007v-16.148h24.042l25.81-14.902c3.982-2.299,10.006-2.549,13.454-0.558
				l26.776,15.459h22.536v-1.113h-24.054l-26.776-15.459c-3.448-1.991-9.472-1.741-13.454,0.558l-25.81,14.902h-24.042v16.148h0.007
				c-0.098,1.347,0.654,2.648,2.31,3.605l0.273,0.158C173.786,211.731,173.431,210.816,173.499,209.876z"/>
			
				<linearGradient id="SVGID_00000166658551380832727510000013522408749198622613_" gradientUnits="userSpaceOnUse" x1="506.7143" y1="792.7835" x2="572.3112" y2="735.975" gradientTransform="matrix(0.866 0.5 -1 0.5774 525.0016 -518.4943)">
				<stop  offset="0" style="stop-color:#267FE5"/>
				<stop  offset="0.1699" style="stop-color:#2C87E7"/>
				<stop  offset="0.441" style="stop-color:#3D9FEB"/>
				<stop  offset="0.7773" style="stop-color:#59C4F2"/>
				<stop  offset="1" style="stop-color:#6EE1F8"/>
			</linearGradient>
			<path style="fill:url(#SVGID_00000166658551380832727510000013522408749198622613_);" d="M222.794,224.222l-48.502-28.003
				c-3.449-1.991-3.016-5.469,0.966-7.768l46.568-26.886c3.982-2.299,10.006-2.549,13.454-0.558l48.502,28.003
				c3.449,1.991,3.016,5.469-0.966,7.768l-46.568,26.886C232.266,225.963,226.242,226.213,222.794,224.222z"/>
			<path style="fill:#6EE8FC;" d="M283.782,189.01l-48.502-28.003c-1.786-1.031-4.263-1.456-6.79-1.312
				c1.837,0.111,3.558,0.542,4.892,1.312l48.502,28.003c3.449,1.991,3.016,5.469-0.966,7.768l-46.568,26.886
				c-1.92,1.108-4.313,1.735-6.664,1.87c2.913,0.176,6.121-0.46,8.562-1.87l46.568-26.886
				C286.798,194.479,287.231,191.001,283.782,189.01z"/>
			
				<linearGradient id="SVGID_00000070119483787644525410000015541994789843768467_" gradientUnits="userSpaceOnUse" x1="186.1312" y1="192.6146" x2="271.9427" y2="192.6146">
				<stop  offset="0" style="stop-color:#6DE0F6"/>
				<stop  offset="0.1595" style="stop-color:#68D8F5"/>
				<stop  offset="0.4138" style="stop-color:#5AC0F1"/>
				<stop  offset="0.7294" style="stop-color:#439BEA"/>
				<stop  offset="1" style="stop-color:#2C75E4"/>
			</linearGradient>
			<path style="fill:url(#SVGID_00000070119483787644525410000015541994789843768467_);" d="M228.738,217.553
				c-1.706,0-3.338-0.345-4.556-1.048l-36.11-20.848c-1.252-0.722-1.94-1.742-1.94-2.871c0-1.332,0.97-2.655,2.66-3.63l34.67-20.017
				c3.074-1.775,7.754-1.961,10.431-0.415l36.109,20.848c1.252,0.723,1.941,1.742,1.941,2.871c0,1.331-0.97,2.654-2.66,3.63
				l-34.67,20.017C232.937,217.058,230.784,217.553,228.738,217.553z M229.336,168.492c-1.895,0-3.898,0.463-5.461,1.365
				l-34.67,20.017c-1.427,0.824-2.245,1.885-2.245,2.913c0,0.82,0.542,1.584,1.525,2.153l36.11,20.848
				c2.449,1.412,6.756,1.227,9.603-0.415l34.67-20.017c1.427-0.824,2.245-1.885,2.245-2.912c0-0.82-0.542-1.585-1.526-2.153
				l-36.109-20.848C232.373,168.805,230.891,168.492,229.336,168.492z"/>
			<path style="fill:#25BFEC;" d="M224.969,224.222l-48.502-28.003c-3.449-1.991-3.016-5.469,0.966-7.768l46.568-26.886
				c1.891-1.091,4.241-1.715,6.558-1.862c-2.957-0.211-6.244,0.425-8.734,1.862l-46.568,26.886
				c-3.982,2.299-4.415,5.777-0.966,7.768l48.502,28.003c1.811,1.046,4.333,1.467,6.896,1.305
				C227.917,225.4,226.262,224.968,224.969,224.222z"/>
			<g>
				<defs>
					<path id="SVGID_00000065761849499492627320000018109044654645195684_" d="M225.669,209.663l-26.161-15.104
						c-1.86-1.074-1.627-2.95,0.521-4.19l25.118-14.502c2.148-1.24,5.397-1.375,7.257-0.301l26.161,15.104
						c1.86,1.074,1.627,2.95-0.521,4.19l-25.118,14.502C230.779,210.602,227.529,210.737,225.669,209.663z"/>
				</defs>
				<clipPath id="SVGID_00000050662843640651509110000008131083832689161913_">
					<use xlink:href="#SVGID_00000065761849499492627320000018109044654645195684_"  style="overflow:visible;"/>
				</clipPath>
			</g>
			<g>
				<path style="fill:#6DE0F6;" d="M220.645,233.213l-41.028-23.731c-0.375-0.217-0.68-0.798-0.68-1.298v-1.942
					c0-0.5,0.304-0.73,0.68-0.514l41.028,23.731c0.375,0.217,0.68,0.798,0.68,1.298v1.941
					C221.325,233.199,221.02,233.429,220.645,233.213z"/>
				<path style="fill:#267FE5;" d="M180.515,208.969c-0.375-0.217-0.679-0.798-0.679-1.299v-1.816l-0.219-0.126
					c-0.375-0.217-0.68,0.013-0.68,0.514v1.942c0,0.5,0.304,1.082,0.68,1.298l41.028,23.731c0.375,0.217,0.68-0.013,0.68-0.514
					v-0.126L180.515,208.969z"/>
			</g>
		</g>
	</g>
	<g>
		<g style="opacity:0.4;">
			
				<linearGradient id="SVGID_00000071539844976797316850000017749189845870098108_" gradientUnits="userSpaceOnUse" x1="239.0375" y1="324.1835" x2="378.1016" y2="324.1835">
				<stop  offset="0" style="stop-color:#A31FA9"/>
				<stop  offset="0.0668" style="stop-color:#8B17A0"/>
				<stop  offset="0.1494" style="stop-color:#740F98"/>
				<stop  offset="0.2393" style="stop-color:#640A92"/>
				<stop  offset="0.3408" style="stop-color:#5B078F"/>
				<stop  offset="0.4785" style="stop-color:#58068E"/>
				<stop  offset="0.6264" style="stop-color:#4D22A3"/>
				<stop  offset="0.9436" style="stop-color:#3168DA"/>
				<stop  offset="1" style="stop-color:#2C75E4"/>
			</linearGradient>
			<path style="fill:url(#SVGID_00000071539844976797316850000017749189845870098108_);" d="M363.976,308.036h-24.054
				l-26.776-15.459c-3.449-1.991-9.472-1.741-13.454,0.558l-25.81,14.902h-24.042v16.148h0.008c-0.098,1.347,0.653,2.648,2.31,3.604
				l48.502,28.003c3.449,1.991,9.472,1.741,13.454-0.558l46.568-26.886c2.069-1.194,3.17-2.706,3.276-4.163h0.018V308.036z"/>
			<path style="fill:#D4088C;" d="M251.365,325.297h-0.008v-16.148h24.042l25.81-14.902c3.982-2.299,10.006-2.549,13.454-0.558
				l26.776,15.459h22.536v-1.113h-24.054l-26.776-15.459c-3.449-1.991-9.472-1.741-13.454,0.558l-25.81,14.902h-24.042v16.148h0.007
				c-0.098,1.347,0.653,2.648,2.31,3.604l0.273,0.158C251.652,327.152,251.296,326.237,251.365,325.297z"/>
			
				<linearGradient id="SVGID_00000147898821987185671240000016851438855259279532_" gradientUnits="userSpaceOnUse" x1="667.0903" y1="853.8037" x2="732.6871" y2="796.9951" gradientTransform="matrix(0.866 0.5 -1 0.5774 525.0016 -518.4943)">
				<stop  offset="0" style="stop-color:#8D139B"/>
				<stop  offset="0.1651" style="stop-color:#851BA1"/>
				<stop  offset="0.4284" style="stop-color:#6E33B2"/>
				<stop  offset="0.7551" style="stop-color:#4958CD"/>
				<stop  offset="1" style="stop-color:#2979E4"/>
			</linearGradient>
			<path style="fill:url(#SVGID_00000147898821987185671240000016851438855259279532_);" d="M300.659,339.643l-48.502-28.003
				c-3.449-1.991-3.016-5.469,0.966-7.768l46.568-26.886c3.982-2.299,10.006-2.549,13.454-0.558l48.502,28.003
				c3.449,1.991,3.016,5.469-0.966,7.768l-46.568,26.886C310.131,341.384,304.108,341.634,300.659,339.643z"/>
			<path style="fill:#6EE8FC;" d="M361.648,304.431l-48.502-28.003c-1.786-1.031-4.263-1.456-6.79-1.312
				c1.837,0.111,3.558,0.542,4.892,1.312l48.502,28.003c3.449,1.991,3.016,5.469-0.966,7.768l-46.568,26.886
				c-1.92,1.108-4.313,1.735-6.664,1.87c2.913,0.175,6.121-0.46,8.562-1.87l46.568-26.886
				C364.664,309.9,365.096,306.422,361.648,304.431z"/>
			<path style="fill:#480689;" d="M306.603,332.975c-1.707,0-3.339-0.345-4.556-1.048l-36.109-20.849
				c-1.252-0.723-1.941-1.741-1.941-2.87c0-1.332,0.97-2.655,2.66-3.631l34.67-20.017c3.074-1.773,7.756-1.96,10.431-0.415
				l36.109,20.849c1.252,0.723,1.941,1.741,1.941,2.87c0,1.332-0.97,2.655-2.66,3.631l-34.67,20.018
				C310.802,332.478,308.649,332.974,306.603,332.975z M307.202,283.913c-1.895,0-3.897,0.463-5.461,1.365l-34.67,20.018
				c-1.427,0.823-2.245,1.885-2.245,2.912c0,0.819,0.542,1.584,1.526,2.151l36.109,20.849c2.45,1.414,6.756,1.227,9.603-0.415
				l34.67-20.018c1.427-0.823,2.245-1.885,2.245-2.912c0-0.819-0.542-1.584-1.526-2.151l-36.109-20.849
				C310.239,284.226,308.756,283.913,307.202,283.913z"/>
			<path style="fill:#D4088C;" d="M302.835,339.643l-48.502-28.003c-3.449-1.991-3.016-5.469,0.966-7.768l46.568-26.886
				c1.891-1.092,4.241-1.715,6.558-1.862c-2.957-0.211-6.244,0.425-8.734,1.862l-46.568,26.886
				c-3.982,2.299-4.414,5.777-0.966,7.768l48.502,28.003c1.811,1.046,4.333,1.467,6.897,1.305
				C305.782,340.821,304.127,340.389,302.835,339.643z"/>
			<g>
				<defs>
					<path id="SVGID_00000140733498355347824010000002985930595527636131_" d="M303.535,325.084l-26.161-15.104
						c-1.86-1.074-1.627-2.95,0.521-4.19l25.118-14.502c2.148-1.24,5.397-1.375,7.257-0.301l26.161,15.104
						c1.86,1.074,1.627,2.95-0.521,4.19l-25.118,14.502C308.644,326.023,305.395,326.158,303.535,325.084z"/>
				</defs>
				<clipPath id="SVGID_00000151529300213943373360000006508996206093941398_">
					<use xlink:href="#SVGID_00000140733498355347824010000002985930595527636131_"  style="overflow:visible;"/>
				</clipPath>
			</g>
		</g>
		<g style="opacity:0.5;">
			
				<linearGradient id="SVGID_00000178898281241944728600000006681600001013577650_" gradientUnits="userSpaceOnUse" x1="239.0375" y1="301.9401" x2="378.1016" y2="301.9401">
				<stop  offset="0" style="stop-color:#A31FA9"/>
				<stop  offset="0.0668" style="stop-color:#8B17A0"/>
				<stop  offset="0.1494" style="stop-color:#740F98"/>
				<stop  offset="0.2393" style="stop-color:#640A92"/>
				<stop  offset="0.3408" style="stop-color:#5B078F"/>
				<stop  offset="0.4785" style="stop-color:#58068E"/>
				<stop  offset="0.6264" style="stop-color:#4D22A3"/>
				<stop  offset="0.9436" style="stop-color:#3168DA"/>
				<stop  offset="1" style="stop-color:#2C75E4"/>
			</linearGradient>
			<path style="fill:url(#SVGID_00000178898281241944728600000006681600001013577650_);" d="M363.976,285.792h-24.054
				l-26.776-15.459c-3.449-1.991-9.472-1.741-13.454,0.558l-25.81,14.902h-24.042v16.148h0.008c-0.098,1.348,0.653,2.648,2.31,3.605
				l48.502,28.003c3.449,1.991,9.472,1.741,13.454-0.558l46.568-26.886c2.069-1.194,3.17-2.706,3.276-4.163h0.018V285.792z"/>
			<path style="fill:#D4088C;" d="M251.365,303.053h-0.008v-16.148h24.042l25.81-14.902c3.982-2.299,10.006-2.549,13.454-0.558
				l26.776,15.459h22.536v-1.113h-24.054l-26.776-15.459c-3.449-1.991-9.472-1.741-13.454,0.558l-25.81,14.902h-24.042v16.148h0.007
				c-0.098,1.348,0.653,2.648,2.31,3.605l0.273,0.158C251.652,304.908,251.296,303.994,251.365,303.053z"/>
			
				<linearGradient id="SVGID_00000160895461587005786940000002442556190758100134_" gradientUnits="userSpaceOnUse" x1="644.8474" y1="834.5414" x2="710.4443" y2="777.7328" gradientTransform="matrix(0.866 0.5 -1 0.5774 525.0016 -518.4943)">
				<stop  offset="0" style="stop-color:#8D139B"/>
				<stop  offset="0.1651" style="stop-color:#851BA1"/>
				<stop  offset="0.4284" style="stop-color:#6E33B2"/>
				<stop  offset="0.7551" style="stop-color:#4958CD"/>
				<stop  offset="1" style="stop-color:#2979E4"/>
			</linearGradient>
			<path style="fill:url(#SVGID_00000160895461587005786940000002442556190758100134_);" d="M300.659,317.399l-48.502-28.003
				c-3.449-1.991-3.016-5.469,0.966-7.768l46.568-26.886c3.982-2.299,10.006-2.549,13.454-0.558l48.502,28.003
				c3.449,1.991,3.016,5.469-0.966,7.768l-46.568,26.886C310.131,319.141,304.108,319.39,300.659,317.399z"/>
			<path style="fill:#6EE8FC;" d="M361.648,282.188l-48.502-28.003c-1.786-1.031-4.263-1.456-6.79-1.312
				c1.837,0.111,3.558,0.542,4.892,1.312l48.502,28.003c3.449,1.991,3.016,5.469-0.966,7.768l-46.568,26.886
				c-1.92,1.108-4.313,1.735-6.664,1.87c2.913,0.175,6.121-0.46,8.562-1.87l46.568-26.886
				C364.664,287.656,365.096,284.179,361.648,282.188z"/>
			<path style="fill:#480689;" d="M306.604,310.73c-1.707,0-3.339-0.345-4.557-1.048l-36.109-20.848
				c-1.252-0.723-1.941-1.742-1.941-2.871c0-1.331,0.97-2.654,2.66-3.631l34.67-20.017c3.074-1.775,7.755-1.961,10.431-0.415
				l36.109,20.848c1.252,0.723,1.941,1.742,1.941,2.871c0,1.331-0.97,2.654-2.66,3.631l-34.67,20.017
				C310.802,310.235,308.649,310.73,306.604,310.73z M307.201,261.67c-1.895,0-3.897,0.463-5.46,1.365l-34.67,20.017
				c-1.427,0.823-2.245,1.885-2.245,2.912c0,0.82,0.542,1.585,1.526,2.152l36.109,20.848c2.45,1.415,6.757,1.229,9.603-0.415
				l34.67-20.017c1.427-0.823,2.245-1.885,2.245-2.912c0-0.82-0.542-1.585-1.526-2.152l-36.109-20.848
				C310.239,261.982,308.756,261.67,307.201,261.67z"/>
			<path style="fill:#D4088C;" d="M302.835,317.399l-48.502-28.003c-3.449-1.991-3.016-5.469,0.966-7.768l46.568-26.886
				c1.891-1.092,4.241-1.715,6.558-1.862c-2.957-0.211-6.244,0.425-8.734,1.862l-46.568,26.886
				c-3.982,2.299-4.414,5.777-0.966,7.768l48.502,28.003c1.811,1.046,4.333,1.467,6.897,1.304
				C305.782,318.577,304.127,318.146,302.835,317.399z"/>
			<g>
				<defs>
					<path id="SVGID_00000160163915627886393070000015819501915256740505_" d="M303.535,302.841l-26.161-15.104
						c-1.86-1.074-1.627-2.95,0.521-4.19l25.118-14.502c2.148-1.24,5.397-1.375,7.257-0.301l26.161,15.104
						c1.86,1.074,1.627,2.95-0.521,4.19l-25.118,14.502C308.644,303.78,305.395,303.915,303.535,302.841z"/>
				</defs>
				<clipPath id="SVGID_00000063613980283654911600000016812851673839409315_">
					<use xlink:href="#SVGID_00000160163915627886393070000015819501915256740505_"  style="overflow:visible;"/>
				</clipPath>
			</g>
		</g>
		<g style="opacity:0.7;">
			
				<linearGradient id="SVGID_00000060742953783531756780000002349076072575576736_" gradientUnits="userSpaceOnUse" x1="239.0375" y1="279.6966" x2="378.1016" y2="279.6966">
				<stop  offset="0" style="stop-color:#A31FA9"/>
				<stop  offset="0.0668" style="stop-color:#8B17A0"/>
				<stop  offset="0.1494" style="stop-color:#740F98"/>
				<stop  offset="0.2393" style="stop-color:#640A92"/>
				<stop  offset="0.3408" style="stop-color:#5B078F"/>
				<stop  offset="0.4785" style="stop-color:#58068E"/>
				<stop  offset="0.6264" style="stop-color:#4D22A3"/>
				<stop  offset="0.9436" style="stop-color:#3168DA"/>
				<stop  offset="1" style="stop-color:#2C75E4"/>
			</linearGradient>
			<path style="fill:url(#SVGID_00000060742953783531756780000002349076072575576736_);" d="M363.976,263.549h-24.054
				l-26.776-15.459c-3.449-1.991-9.472-1.741-13.454,0.558l-25.81,14.902h-24.042v16.148h0.008c-0.098,1.347,0.653,2.648,2.31,3.604
				l48.502,28.003c3.449,1.991,9.472,1.741,13.454-0.558l46.568-26.886c2.069-1.194,3.17-2.706,3.276-4.163h0.018V263.549z"/>
			<path style="fill:#D4088C;" d="M251.365,280.81h-0.008v-16.148h24.042l25.81-14.902c3.982-2.299,10.006-2.549,13.454-0.558
				l26.776,15.459h22.536v-1.113h-24.054l-26.776-15.459c-3.449-1.991-9.472-1.741-13.454,0.558l-25.81,14.902h-24.042v16.148h0.007
				c-0.098,1.347,0.653,2.648,2.31,3.604l0.273,0.158C251.652,282.665,251.296,281.75,251.365,280.81z"/>
			
				<linearGradient id="SVGID_00000121994668626777995110000008155463365286107017_" gradientUnits="userSpaceOnUse" x1="622.6046" y1="815.2791" x2="688.2015" y2="758.4706" gradientTransform="matrix(0.866 0.5 -1 0.5774 525.0016 -518.4943)">
				<stop  offset="0" style="stop-color:#8D139B"/>
				<stop  offset="0.1651" style="stop-color:#851BA1"/>
				<stop  offset="0.4284" style="stop-color:#6E33B2"/>
				<stop  offset="0.7551" style="stop-color:#4958CD"/>
				<stop  offset="1" style="stop-color:#2979E4"/>
			</linearGradient>
			<path style="fill:url(#SVGID_00000121994668626777995110000008155463365286107017_);" d="M300.659,295.156l-48.502-28.003
				c-3.449-1.991-3.016-5.469,0.966-7.768l46.568-26.886c3.982-2.299,10.006-2.549,13.454-0.558l48.502,28.003
				c3.449,1.991,3.016,5.469-0.966,7.768l-46.568,26.886C310.131,296.897,304.108,297.147,300.659,295.156z"/>
			<path style="fill:#6EE8FC;" d="M361.648,259.944l-48.502-28.003c-1.786-1.031-4.263-1.456-6.79-1.312
				c1.837,0.111,3.558,0.542,4.892,1.312l48.502,28.003c3.449,1.991,3.016,5.469-0.966,7.768l-46.568,26.886
				c-1.92,1.108-4.313,1.735-6.664,1.87c2.913,0.176,6.121-0.46,8.562-1.87l46.568-26.886
				C364.664,265.413,365.096,261.935,361.648,259.944z"/>
			<path style="fill:#480689;" d="M306.604,288.487c-1.707,0-3.339-0.345-4.557-1.048l-36.109-20.848
				c-1.252-0.723-1.941-1.742-1.941-2.871c0-1.331,0.97-2.654,2.66-3.631l34.67-20.017c3.074-1.775,7.755-1.961,10.431-0.415
				l36.109,20.848c1.252,0.723,1.941,1.742,1.941,2.871c0,1.331-0.97,2.654-2.66,3.631l-34.67,20.017
				C310.802,287.992,308.649,288.487,306.604,288.487z M307.201,239.427c-1.895,0-3.897,0.463-5.46,1.365l-34.67,20.017
				c-1.427,0.823-2.245,1.885-2.245,2.912c0,0.82,0.542,1.585,1.526,2.152l36.109,20.848c2.45,1.415,6.757,1.228,9.603-0.415
				l34.67-20.017c1.427-0.823,2.245-1.885,2.245-2.912c0-0.82-0.542-1.585-1.526-2.152l-36.109-20.848
				C310.239,239.739,308.756,239.427,307.201,239.427z"/>
			<path style="fill:#D4088C;" d="M302.835,295.156l-48.502-28.003c-3.449-1.991-3.016-5.469,0.966-7.768l46.568-26.886
				c1.891-1.092,4.241-1.715,6.558-1.862c-2.957-0.211-6.244,0.425-8.734,1.862l-46.568,26.886
				c-3.982,2.299-4.414,5.777-0.966,7.768l48.502,28.003c1.811,1.046,4.333,1.467,6.897,1.305
				C305.782,296.334,304.127,295.902,302.835,295.156z"/>
			<g>
				<defs>
					<path id="SVGID_00000025417137222834260940000011744556705889695370_" d="M303.535,280.597l-26.161-15.104
						c-1.86-1.074-1.627-2.95,0.521-4.19l25.118-14.502c2.148-1.24,5.397-1.375,7.257-0.301l26.161,15.104
						c1.86,1.074,1.627,2.95-0.521,4.19l-25.118,14.502C308.644,281.536,305.395,281.671,303.535,280.597z"/>
				</defs>
				<clipPath id="SVGID_00000065041769244717352470000015320307677447245198_">
					<use xlink:href="#SVGID_00000025417137222834260940000011744556705889695370_"  style="overflow:visible;"/>
				</clipPath>
			</g>
		</g>
		<g>
			
				<linearGradient id="SVGID_00000169548275718629119240000001592017693024793473_" gradientUnits="userSpaceOnUse" x1="239.0375" y1="257.4532" x2="378.1016" y2="257.4532">
				<stop  offset="0" style="stop-color:#A31FA9"/>
				<stop  offset="0.0668" style="stop-color:#8B17A0"/>
				<stop  offset="0.1494" style="stop-color:#740F98"/>
				<stop  offset="0.2393" style="stop-color:#640A92"/>
				<stop  offset="0.3408" style="stop-color:#5B078F"/>
				<stop  offset="0.4785" style="stop-color:#58068E"/>
				<stop  offset="0.6264" style="stop-color:#4D22A3"/>
				<stop  offset="0.9436" style="stop-color:#3168DA"/>
				<stop  offset="1" style="stop-color:#2C75E4"/>
			</linearGradient>
			<path style="fill:url(#SVGID_00000169548275718629119240000001592017693024793473_);" d="M363.976,241.305h-24.054
				l-26.776-15.459c-3.449-1.991-9.472-1.741-13.454,0.558l-25.81,14.902h-24.042v16.148h0.008c-0.098,1.348,0.653,2.648,2.31,3.605
				l48.502,28.003c3.449,1.991,9.472,1.741,13.454-0.558l46.568-26.886c2.069-1.194,3.17-2.706,3.276-4.163h0.018V241.305z"/>
			<path style="fill:#D4088C;" d="M251.365,258.566h-0.008v-16.148h24.042l25.81-14.902c3.982-2.299,10.006-2.549,13.454-0.558
				l26.776,15.459h22.536v-1.113h-24.054l-26.776-15.459c-3.449-1.991-9.472-1.741-13.454,0.558l-25.81,14.902h-24.042v16.148h0.007
				c-0.098,1.348,0.653,2.648,2.31,3.605l0.273,0.158C251.652,260.422,251.296,259.507,251.365,258.566z"/>
			
				<linearGradient id="SVGID_00000104675075557845083300000010405388904674530721_" gradientUnits="userSpaceOnUse" x1="600.3618" y1="796.0169" x2="665.9587" y2="739.2083" gradientTransform="matrix(0.866 0.5 -1 0.5774 525.0016 -518.4943)">
				<stop  offset="0" style="stop-color:#267FE5"/>
				<stop  offset="0.1699" style="stop-color:#2C87E7"/>
				<stop  offset="0.441" style="stop-color:#3D9FEB"/>
				<stop  offset="0.7773" style="stop-color:#59C4F2"/>
				<stop  offset="1" style="stop-color:#6EE1F8"/>
			</linearGradient>
			<path style="fill:url(#SVGID_00000104675075557845083300000010405388904674530721_);" d="M300.659,272.913l-48.502-28.003
				c-3.449-1.991-3.016-5.469,0.966-7.768l46.568-26.886c3.982-2.299,10.006-2.549,13.454-0.558l48.502,28.003
				c3.449,1.991,3.016,5.469-0.966,7.768l-46.568,26.886C310.131,274.654,304.108,274.904,300.659,272.913z"/>
			<path style="fill:#6EE8FC;" d="M361.648,237.701l-48.502-28.003c-1.786-1.031-4.263-1.456-6.79-1.312
				c1.837,0.111,3.558,0.542,4.892,1.312l48.502,28.003c3.449,1.991,3.016,5.469-0.966,7.768l-46.568,26.886
				c-1.92,1.108-4.313,1.735-6.664,1.87c2.913,0.176,6.121-0.46,8.562-1.87l46.568-26.886
				C364.664,243.17,365.096,239.692,361.648,237.701z"/>
			
				<linearGradient id="SVGID_00000096756300498715801780000011427562839288574110_" gradientUnits="userSpaceOnUse" x1="264.1605" y1="241.3051" x2="349.6439" y2="241.3051">
				<stop  offset="0" style="stop-color:#6DE0F6"/>
				<stop  offset="0.1595" style="stop-color:#68D8F5"/>
				<stop  offset="0.4138" style="stop-color:#5AC0F1"/>
				<stop  offset="0.7294" style="stop-color:#439BEA"/>
				<stop  offset="1" style="stop-color:#2C75E4"/>
			</linearGradient>
			<path style="fill:url(#SVGID_00000096756300498715801780000011427562839288574110_);" d="M306.603,266.082
				c-1.677,0-3.278-0.339-4.474-1.028l-36.109-20.848c-1.199-0.692-1.859-1.661-1.859-2.73c0.001-1.27,0.94-2.542,2.578-3.487
				l34.67-20.017c3.027-1.749,7.634-1.937,10.267-0.415l36.109,20.848c1.198,0.692,1.858,1.661,1.859,2.729
				c0,1.27-0.939,2.542-2.578,3.488l-34.67,20.017C310.742,265.593,308.618,266.082,306.603,266.082z M307.201,217.021
				c-1.924,0-3.957,0.469-5.542,1.384l-34.67,20.018c-1.48,0.854-2.327,1.967-2.328,3.055c0,0.881,0.572,1.696,1.609,2.295
				l36.109,20.848c2.494,1.441,6.876,1.253,9.767-0.415l34.67-20.017c1.479-0.854,2.328-1.968,2.328-3.055
				c-0.001-0.881-0.572-1.696-1.609-2.295l-36.109-20.849C310.298,217.34,308.786,217.021,307.201,217.021z"/>
			<path style="fill:#25BFEC;" d="M302.835,272.913l-48.502-28.003c-3.449-1.991-3.016-5.469,0.966-7.768l46.568-26.886
				c1.891-1.091,4.241-1.715,6.558-1.862c-2.957-0.211-6.244,0.425-8.734,1.862l-46.568,26.886
				c-3.982,2.299-4.414,5.777-0.966,7.768l48.502,28.003c1.811,1.046,4.333,1.467,6.897,1.305
				C305.782,274.09,304.127,273.659,302.835,272.913z"/>
			<g>
				<defs>
					<path id="SVGID_00000142894002863294566700000007993813745334283653_" d="M303.535,258.354l-26.161-15.104
						c-1.86-1.074-1.627-2.95,0.521-4.19l25.118-14.502c2.148-1.24,5.397-1.375,7.257-0.301l26.161,15.104
						c1.86,1.074,1.627,2.95-0.521,4.19l-25.118,14.502C308.644,259.293,305.395,259.428,303.535,258.354z"/>
				</defs>
				<clipPath id="SVGID_00000001639913253599790750000014107419919538217654_">
					<use xlink:href="#SVGID_00000142894002863294566700000007993813745334283653_"  style="overflow:visible;"/>
				</clipPath>
			</g>
			<g>
				<path style="fill:#6DE0F6;" d="M315.497,281.903l41.028-23.731c0.375-0.217,0.68-0.798,0.68-1.298v-1.942
					c0-0.5-0.304-0.73-0.68-0.514l-41.028,23.731c-0.375,0.217-0.68,0.798-0.68,1.298v1.941
					C314.817,281.89,315.121,282.12,315.497,281.903z"/>
				<path style="fill:#267FE5;" d="M355.626,257.659c0.375-0.217,0.68-0.798,0.68-1.299v-1.816l0.219-0.126
					c0.375-0.217,0.68,0.013,0.68,0.514v1.942c0,0.5-0.304,1.082-0.68,1.298l-41.028,23.731c-0.375,0.217-0.68-0.013-0.68-0.514
					v-0.126L355.626,257.659z"/>
			</g>
			<g>
				<path style="fill:#6DE0F6;" d="M298.605,281.903l-41.028-23.731c-0.375-0.217-0.68-0.798-0.68-1.298v-1.942
					c0-0.5,0.304-0.73,0.68-0.514l41.028,23.731c0.375,0.217,0.68,0.798,0.68,1.298v1.941
					C299.285,281.89,298.981,282.12,298.605,281.903z"/>
				<path style="fill:#267FE5;" d="M258.476,257.659c-0.375-0.217-0.68-0.798-0.68-1.299v-1.816l-0.219-0.126
					c-0.375-0.217-0.68,0.013-0.68,0.514v1.942c0,0.5,0.304,1.082,0.68,1.298l41.028,23.731c0.375,0.217,0.68-0.013,0.68-0.514
					v-0.126L258.476,257.659z"/>
			</g>
		</g>
	</g>
</g>
</svg>
